<svg xmlns="http://www.w3.org/2000/svg" width="510.045" height="119.696" viewBox="0 0 510.045 119.696">
  <g id="logo_white_" data-name="logo_white " transform="translate(-288.328 -356.6)">
    <path id="Path_500" data-name="Path 500" d="M402.638,390.2c-20.216,0-33.338,11.881-33.338,30.146,0,18.442,12.768,29.968,33.338,29.968,20.392,0,33.515-11.7,33.515-29.968C436.152,401.9,423.03,390.2,402.638,390.2Zm11.88,47.878L402.992,432.4l-11.527,5.674a1.621,1.621,0,0,1-2.305-1.773l2.128-12.059-9.221-8.511a1.637,1.637,0,0,1,.887-2.837l12.768-1.773,5.852-11.172a1.66,1.66,0,0,1,2.837,0l5.852,11.172L423.03,412.9a1.656,1.656,0,0,1,.887,2.837l-9.221,8.511,2.128,12.059A1.709,1.709,0,0,1,414.518,438.078Z" transform="translate(172.48 25.982)" fill="#fff"/>
    <path id="Path_501" data-name="Path 501" d="M417.029,410.358h78.556a5.979,5.979,0,0,0,6.029-6.029h0a5.979,5.979,0,0,0-6.029-6.029H417.029A5.979,5.979,0,0,0,411,404.329h0A5.979,5.979,0,0,0,417.029,410.358Z" transform="translate(204.726 32.246)" fill="#fff"/>
    <path id="Path_502" data-name="Path 502" d="M546.225,392.42h-9.044V363.693a7.093,7.093,0,1,0-14.186,0v53.021a144.265,144.265,0,0,1-31.564,3.724H478.309V404.3h25a5.979,5.979,0,0,0,6.029-6.029h0a5.979,5.979,0,0,0-6.029-6.029h-25v-15.6h26.245a6.029,6.029,0,1,0,0-12.058H470.329a5.979,5.979,0,0,0-6.029,6.029v55.858a5.979,5.979,0,0,0,6.029,6.029h18.265a151.356,151.356,0,0,0,34.4-3.9V449.52a7.093,7.093,0,1,0,14.186,0V404.833h9.044a6.283,6.283,0,0,0,6.206-6.206A6.06,6.06,0,0,0,546.225,392.42Z" transform="translate(245.941)" fill="#fff"/>
    <path id="Path_503" data-name="Path 503" d="M338.2,409.976a6.608,6.608,0,0,0,13.122-1.064V390.647h6.739v21.279a6.561,6.561,0,1,0,13.122,0V363.161a6.561,6.561,0,0,0-13.122,0V379.3h-6.739V364.225a6.561,6.561,0,1,0-13.122,0v34.047" transform="translate(148.431 0)" fill="#fff"/>
    <path id="Path_504" data-name="Path 504" d="M357.819,396.339l-.355.177a118.552,118.552,0,0,1-27.84,3.192h-2.837v-9.4h12.236A10.1,10.1,0,0,0,349.13,380.2V369.208A10.1,10.1,0,0,0,339.022,359.1h-20.57a5.852,5.852,0,1,0,0,11.7h17.2v8.334H322.885a10.1,10.1,0,0,0-10.108,10.108v12.235a10.1,10.1,0,0,0,10.108,10.108c14.9,0,26.6-1.064,34.934-3.369H358" transform="translate(128.635 1.933)" fill="#fff"/>
    <path id="Path_505" data-name="Path 505" d="M405.393,416.891a7.114,7.114,0,0,0,7.093-7.093v-46.1a7.093,7.093,0,1,0-14.186,0v46.1A7.232,7.232,0,0,0,405.393,416.891Z" transform="translate(194.905 0)" fill="#fff"/>
    <path id="Path_506" data-name="Path 506" d="M351.538,390.2c-20.215,0-33.338,11.881-33.338,30.146,0,18.442,12.768,29.968,33.338,29.968,20.393,0,33.515-11.7,33.515-29.968C384.875,401.9,371.753,390.2,351.538,390.2Zm11.7,47.878L351.715,432.4l-11.526,5.674a1.621,1.621,0,0,1-2.305-1.773l2.128-12.059-9.221-8.511a1.637,1.637,0,0,1,.887-2.837l12.768-1.773,5.852-11.172a1.66,1.66,0,0,1,2.837,0l5.852,11.172,12.767,1.773a1.656,1.656,0,0,1,.887,2.837l-9.221,8.511,2.128,12.059A1.667,1.667,0,0,1,363.241,438.078Z" transform="translate(132.966 25.982)" fill="#fff"/>
    <path id="Path_507" data-name="Path 507" d="M418.7,359.709V359h-.709c-11.881.177-20.747.177-31.032.177H374.009a5.714,5.714,0,0,0-5.675,5.675v.354a5.714,5.714,0,0,0,5.675,5.674h6.916c8.512,0,15.782,0,21.457-.177a26.988,26.988,0,0,1-1.951,5.675,169.7,169.7,0,0,1-19.506.887h-8.512a5.674,5.674,0,1,0,0,11.349h8.512c3.192,0,6.384-.177,9.576-.355-7.093,6.029-17.024,10.994-29.614,14.541l-.887.177,8.689,10.108.354-.177C398.657,404.4,417.1,384.358,418.7,359.709Z" transform="translate(165.289 1.856)" fill="#fff"/>
    <path id="Path_512" data-name="Path 512" d="M416.324,403.709a5.976,5.976,0,0,0-3.724,5.319h0a7.191,7.191,0,0,0,7.27,7.271h0a8.351,8.351,0,0,0,3.015-.709h0l.354-.177a63.913,63.913,0,0,0,26.777-18.265,52.682,52.682,0,0,0,4.788-6.207,1.331,1.331,0,0,1,2.128,0,60.584,60.584,0,0,0,9.221,10.817,74.04,74.04,0,0,0,12.767,9.4,73.122,73.122,0,0,0,9.221,4.256l.355.177h0a7.334,7.334,0,0,0,3.369.887h0a7.114,7.114,0,0,0,7.093-7.093h0a5.767,5.767,0,0,0-3.724-5.5l-3.724-1.6a64.864,64.864,0,0,1-17.91-11.526c-6.916-6.384-10.285-15.428-10.462-24.649v-.177a7.3,7.3,0,0,0-7.093-6.738,7.169,7.169,0,0,0-7.093,6.738h0a39.84,39.84,0,0,1-5.852,18.8c-4.611,7.271-11.881,12.768-22.521,17.378Z" transform="translate(205.963 2.01)" fill="#fff"/>
    <path id="Path_509" data-name="Path 509" d="M268.18,211.4h0a18.034,18.034,0,0,0,5.045-24.966l-12.7-19.312A36.722,36.722,0,0,0,278.1,135.809h0A36.716,36.716,0,0,0,241.387,99.1H158.4a27.955,27.955,0,0,0,27.923,27.923h28.532a2.663,2.663,0,0,0,2.262-1.653l5.654-13.744a2.724,2.724,0,0,1,5.045,0l5.654,13.744a2.777,2.777,0,0,0,2.262,1.653l15.832,1.479a2.8,2.8,0,0,1,1.653,4.784L241.3,143.812l-.087.087a2.9,2.9,0,0,0-.783,2.61L244,161.21a2.68,2.68,0,0,1-4,2.958l-13.222-7.742a2.67,2.67,0,0,0-2.784,0l-13.222,7.742a2.7,2.7,0,0,1-4-2.958l.7-2.871A31.492,31.492,0,0,1,220.771,141.9c.7-.435,1.479-.87,2.175-1.218.522-.261,1.044-.522,1.653-.783v-.087a46.835,46.835,0,0,1,19.224-4.958c-36.448,1.392-46.8,11.57-46.8,11.57a34.192,34.192,0,0,0-13.57,27.314v24.27a17.987,17.987,0,0,0,18.007,18.007h0a20.092,20.092,0,0,0,6.872-1.3,17.985,17.985,0,0,0,11.221-16.7V172.692h1.566L243.3,206.444A17.957,17.957,0,0,0,268.18,211.4Z" transform="translate(129.928 258.43)" fill="#fff"/>
  </g>
</svg>
