<svg xmlns="http://www.w3.org/2000/svg" xmlns:xlink="http://www.w3.org/1999/xlink" width="106.529" height="25" viewBox="0 0 106.529 25">
    <defs>
        <linearGradient id="prefix__linear-gradient" x1=".092" x2=".916" y1=".012" y2=".873" gradientUnits="objectBoundingBox">
            <stop offset=".08" stop-color="#af0091"/>
            <stop offset=".675" stop-color="#ff0073"/>
            <stop offset=".983" stop-color="#ff7800"/>
        </linearGradient>
        <linearGradient id="prefix__linear-gradient-2" x1=".307" x2=".88" y1=".225" y2=".896" xlink:href="#prefix__linear-gradient"/>
        <style>
            .prefix__cls-1{fill:#8f8f8f}.prefix__cls-2{fill:#ff0b7b}
        </style>
    </defs>
    <g id="prefix__logo_white_" data-name="logo_white" transform="translate(-288.328 -356.6)">
        <path id="prefix__Path_500" d="M376.263 390.2c-4.222 0-6.963 2.481-6.963 6.3 0 3.852 2.667 6.259 6.963 6.259 4.259 0 7-2.444 7-6.259 0-3.856-2.741-6.3-7-6.3zm2.481 10l-2.407-1.185-2.407 1.185a.339.339 0 0 1-.481-.37l.444-2.519-1.926-1.778a.342.342 0 0 1 .185-.593l2.667-.37 1.222-2.333a.347.347 0 0 1 .593 0l1.222 2.333 2.667.37a.346.346 0 0 1 .185.593l-1.926 1.778.444 2.519a.357.357 0 0 1-.482.37z" class="prefix__cls-1" data-name="Path 500" transform="translate(-28.035 -21.156)"/>
        <path id="prefix__Path_501" d="M412.259 400.819h16.407a1.249 1.249 0 0 0 1.259-1.259 1.249 1.249 0 0 0-1.259-1.259h-16.407a1.249 1.249 0 0 0-1.259 1.258 1.249 1.249 0 0 0 1.259 1.26z" class="prefix__cls-2" data-name="Path 501" transform="translate(-54.291 -26.256)"/>
        <path id="prefix__Path_502" d="M481.411 364.081h-1.889v-6a1.481 1.481 0 1 0-2.963 0v11.074a30.131 30.131 0 0 1-6.593.778h-2.741v-3.37h5.222a1.249 1.249 0 0 0 1.259-1.259 1.249 1.249 0 0 0-1.259-1.259h-5.222v-3.259h5.482a1.259 1.259 0 1 0 0-2.518h-7.148a1.249 1.249 0 0 0-1.259 1.259v11.667a1.249 1.249 0 0 0 1.259 1.259h3.815a31.612 31.612 0 0 0 7.185-.815v4.37a1.481 1.481 0 1 0 2.963 0v-9.333h1.889a1.312 1.312 0 0 0 1.3-1.3 1.266 1.266 0 0 0-1.3-1.294z" class="prefix__cls-2" data-name="Path 502" transform="translate(-87.85)"/>
        <path id="prefix__Path_503" d="M338.2 367.748a1.38 1.38 0 0 0 2.741-.222v-3.815h1.407v4.444a1.37 1.37 0 0 0 2.741 0V357.97a1.37 1.37 0 0 0-2.741 0v3.37h-1.407v-3.148a1.37 1.37 0 1 0-2.741 0v7.108" class="prefix__cls-1" data-name="Path 503" transform="translate(-8.454)"/>
        <path id="prefix__Path_504" d="M322.044 366.878l-.074.037a24.762 24.762 0 0 1-5.815.667h-.593v-1.963h2.556a2.11 2.11 0 0 0 2.111-2.111v-2.3a2.11 2.11 0 0 0-2.111-2.111h-4.3a1.222 1.222 0 1 0 0 2.444h3.593v1.741h-2.667a2.11 2.11 0 0 0-2.111 2.111v2.556a2.11 2.11 0 0 0 2.111 2.111 28.91 28.91 0 0 0 7.3-.7h.037" class="prefix__cls-1" data-name="Path 504" transform="translate(7.665 -1.574)"/>
        <path id="prefix__Path_505" d="M399.781 369.193a1.486 1.486 0 0 0 1.482-1.482v-9.63a1.482 1.482 0 1 0-2.963 0v9.63a1.51 1.51 0 0 0 1.481 1.482z" class="prefix__cls-1" data-name="Path 505" transform="translate(-46.295)"/>
        <path id="prefix__Path_506" d="M325.163 390.2c-4.222 0-6.963 2.481-6.963 6.3 0 3.852 2.667 6.259 6.963 6.259 4.259 0 7-2.444 7-6.259-.037-3.856-2.778-6.3-7-6.3zm2.444 10l-2.407-1.185-2.407 1.185a.339.339 0 0 1-.481-.37l.444-2.519-1.926-1.778a.342.342 0 0 1 .185-.593l2.667-.37 1.222-2.333a.347.347 0 0 1 .593 0l1.222 2.333 2.667.37a.346.346 0 0 1 .185.593l-1.926 1.778.444 2.519a.348.348 0 0 1-.482.37z" class="prefix__cls-1" data-name="Path 506" transform="translate(4.139 -21.156)"/>
        <path id="prefix__Path_507" d="M372.259 359.148V359h-.148c-2.482.037-4.333.037-6.482.037h-2.7a1.193 1.193 0 0 0-1.185 1.185v.074a1.193 1.193 0 0 0 1.185 1.185h1.444c1.778 0 3.3 0 4.482-.037a5.637 5.637 0 0 1-.407 1.185 35.442 35.442 0 0 1-4.074.185h-1.778a1.185 1.185 0 0 0 0 2.37h1.778c.667 0 1.333-.037 2-.074a16.353 16.353 0 0 1-6.185 3.037l-.185.037 1.815 2.111.074-.037c6.181-1.777 10.033-5.958 10.366-11.11z" class="prefix__cls-1" data-name="Path 507" transform="translate(-22.18 -1.511)"/>
        <path id="prefix__Path_512" d="M413.378 368.5a1.248 1.248 0 0 0-.778 1.111 1.5 1.5 0 0 0 1.518 1.519 1.744 1.744 0 0 0 .63-.148l.074-.037a13.349 13.349 0 0 0 5.593-3.815 11 11 0 0 0 1-1.3.278.278 0 0 1 .445 0 12.654 12.654 0 0 0 1.926 2.259 15.464 15.464 0 0 0 2.667 1.963 15.272 15.272 0 0 0 1.926.889l.074.037a1.532 1.532 0 0 0 .7.185 1.486 1.486 0 0 0 1.482-1.482 1.2 1.2 0 0 0-.778-1.148l-.778-.333a13.547 13.547 0 0 1-3.741-2.407 7.114 7.114 0 0 1-2.185-5.148v-.037a1.524 1.524 0 0 0-1.481-1.407 1.5 1.5 0 0 0-1.482 1.407 8.321 8.321 0 0 1-1.222 3.926 9.894 9.894 0 0 1-4.7 3.63z" class="prefix__cls-2" data-name="Path 512" transform="translate(-55.298 -1.637)"/>
        <g id="prefix__Group_2063" data-name="Group 2063" transform="translate(-161.245 -961.308)">
            <g id="prefix__Group_1728" data-name="Group 1728" transform="translate(449.573 1318.099)">
                <path id="prefix__Path_508" d="M181.33 332.057a3.767 3.767 0 0 0 1.054-5.215l-2.653-4.034a7.67 7.67 0 0 0 3.67-6.541 7.669 7.669 0 0 0-7.668-7.668H158.4a5.839 5.839 0 0 0 5.832 5.832h5.96a.556.556 0 0 0 .472-.345l1.181-2.871a.569.569 0 0 1 1.054 0l1.181 2.871a.58.58 0 0 0 .472.345l3.307.309a.584.584 0 0 1 .345 1l-2.489 2.2-.018.018a.6.6 0 0 0-.164.545l.745 3.071a.56.56 0 0 1-.836.618l-2.762-1.617a.558.558 0 0 0-.581 0l-2.762 1.617a.564.564 0 0 1-.836-.618l.145-.6a6.578 6.578 0 0 1 2.78-3.434c.145-.091.309-.182.454-.254.109-.055.218-.109.345-.164v-.022a9.782 9.782 0 0 1 4.015-1.036c-7.613.291-9.775 2.417-9.775 2.417a7.142 7.142 0 0 0-2.834 5.705v5.069a3.757 3.757 0 0 0 3.761 3.761 4.2 4.2 0 0 0 1.435-.273 3.757 3.757 0 0 0 2.344-3.489v-5.324h.327l4.633 7.05a3.712 3.712 0 0 0 5.199 1.077z" data-name="Path 508" transform="translate(-158.4 -308.6)"/>
            </g>
            <g id="prefix__Group_1731" data-name="Group 1731" transform="translate(454.77 1325.221)" style="opacity:.35">
                <path id="prefix__Path_511" d="M187 356.249v5.069a3.757 3.757 0 0 0 3.761 3.761 4.2 4.2 0 0 0 1.435-.273 3.757 3.757 0 0 0 2.344-3.489v-5.306h.327l4.633 7.05a3.777 3.777 0 0 0 5.233 1.072 3.767 3.767 0 0 0 1.054-5.215l-2.653-4.034a7.67 7.67 0 0 0 3.67-6.541l-5.215-.545L199.1 350l-.018.018a.6.6 0 0 0-.164.545l.745 3.071a.56.56 0 0 1-.836.618l-2.762-1.617a.558.558 0 0 0-.581 0l-2.762 1.617a.564.564 0 0 1-.836-.618l.145-.6z" data-name="Path 511" transform="translate(-187 -347.8)"/>
            </g>
        </g>
    </g>
</svg>
